<svg width="30" height="25" viewBox="0 0 30 25" fill="none" xmlns="http://www.w3.org/2000/svg">
<path d="M0 8H30V20.5C30 22.5711 28.3211 24.25 26.25 24.25H3.75C1.67893 24.25 0 22.5711 0 20.5V8Z" fill="#3B0273"/>
<path d="M23 8L7 8L7 1.84615C7 0.826551 7.89543 1.24929e-07 9 2.21494e-07L21 1.27057e-06C22.1046 1.36713e-06 23 0.826553 23 1.84615L23 8Z" fill="#3B0273"/>
<path d="M0 6.75C0 4.67893 1.67893 3 3.75 3H26.25C28.3211 3 30 4.67893 30 6.75V9H0V6.75Z" fill="#C8AAE4"/>
<path d="M27.1 6C27.5971 6 28 6.44772 28 7V7C28 7.55228 27.5971 8 27.1 8L22.9 8C22.4029 8 22 7.55228 22 7V7C22 6.44772 22.4029 6 22.9 6L27.1 6Z" fill="#1B0C2B"/>
<path d="M3 8.66667C3 7.74619 3.74619 7 4.66667 7H6.33333C7.25381 7 8 7.74619 8 8.66667V10.3333C8 11.2538 7.25381 12 6.33333 12H4.66667C3.74619 12 3 11.2538 3 10.3333V8.66667Z" fill="#E1D4ED"/>
<circle cx="15.5" cy="16.5" r="5.5" fill="#E1D4ED"/>
</svg>
