<svg width="60" height="60" viewBox="0 0 60 60" fill="none" xmlns="http://www.w3.org/2000/svg">
<path d="M60 30C60 46.5685 46.5685 60 30 60C13.4315 60 0 46.5685 0 30C0 13.4315 13.4315 0 30 0C46.5685 0 60 13.4315 60 30Z" fill="#FF9B2A" fill-opacity="0.1"/>
<path fill-rule="evenodd" clip-rule="evenodd" d="M9.61395 52.0095C12.7571 46.0591 20.5089 40.3475 30.1199 40.3142C39.7223 40.2808 47.3594 45.9579 50.5465 51.8596C45.1886 56.8976 37.9782 59.988 30.0462 59.9999H29.9538C22.1007 59.9881 14.9549 56.9588 9.61395 52.0095Z" fill="#FF9B2A"/>
<path d="M42.1633 25.7232C42.1633 32.3745 36.7714 37.7664 30.1201 37.7664C23.4688 37.7664 18.0769 32.3745 18.0769 25.7232C18.0769 19.0719 23.4688 13.68 30.1201 13.68C36.7714 13.68 42.1633 19.0719 42.1633 25.7232Z" fill="#FF9B2A"/>
</svg>
