<svg width="14" height="18" viewBox="0 0 14 18" fill="none" xmlns="http://www.w3.org/2000/svg">
<path fill-rule="evenodd" clip-rule="evenodd" d="M10.9148 6.96875H1.91479L1.91479 16.9688H10.9148V6.96875ZM1.91479 5.96875C1.36251 5.96875 0.914795 6.41647 0.914795 6.96875V16.9688C0.914795 17.521 1.36251 17.9688 1.91479 17.9688H10.9148C11.4671 17.9688 11.9148 17.521 11.9148 16.9688V6.96875C11.9148 6.41647 11.4671 5.96875 10.9148 5.96875H1.91479ZM3.91479 9.46875C3.91479 9.19261 4.13865 8.96875 4.41479 8.96875C4.69094 8.96875 4.91479 9.19261 4.91479 9.46875V14.4688C4.91479 14.7449 4.69094 14.9688 4.41479 14.9688C4.13865 14.9688 3.91479 14.7449 3.91479 14.4688V9.46875ZM8.41479 8.96875C8.13865 8.96875 7.91479 9.19261 7.91479 9.46875V14.4688C7.91479 14.7449 8.13865 14.9688 8.41479 14.9688C8.69094 14.9688 8.91479 14.7449 8.91479 14.4688V9.46875C8.91479 9.19261 8.69094 8.96875 8.41479 8.96875Z" fill="#979797"/>
<path fill-rule="evenodd" clip-rule="evenodd" d="M3.4755 1.50578L10.3692 2.72132L10.0219 4.69093L3.12821 3.47539L3.4755 1.50578ZM2.4907 1.33213C2.5866 0.788236 3.10526 0.425068 3.64915 0.520971L10.5428 1.73651C11.0867 1.83241 11.4499 2.35107 11.354 2.89496L11.0067 4.86458C11.0066 4.86472 11.0066 4.86486 11.0066 4.86499L12.4837 5.12544C12.7556 5.17339 12.9372 5.43272 12.8892 5.70467C12.8413 5.97661 12.582 6.1582 12.31 6.11025L0.492319 4.02647C0.220372 3.97852 0.038787 3.71919 0.0867386 3.44724C0.13469 3.17529 0.394019 2.99371 0.665967 3.04166L2.14333 3.30216C2.14335 3.30202 2.14338 3.30188 2.1434 3.30175L2.4907 1.33213Z" fill="#979797"/>
</svg>
