<svg width="32" height="34" viewBox="0 0 32 34" fill="none" xmlns="http://www.w3.org/2000/svg">
<path fill-rule="evenodd" clip-rule="evenodd" d="M13.4745 26.949C20.9163 26.949 26.949 20.9163 26.949 13.4745C26.949 6.03274 20.9163 0 13.4745 0C6.03274 0 0 6.03274 0 13.4745C0 20.9163 6.03274 26.949 13.4745 26.949ZM13.4745 23.3558C18.9318 23.3558 23.3558 18.9318 23.3558 13.4745C23.3558 8.01721 18.9318 3.5932 13.4745 3.5932C8.01721 3.5932 3.5932 8.01721 3.5932 13.4745C3.5932 18.9318 8.01721 23.3558 13.4745 23.3558Z" fill="#ABABAB"/>
<rect x="20.5068" y="20.6609" width="15.2711" height="3.5932" rx="1.7966" transform="rotate(45 20.5068 20.6609)" fill="#ABABAB"/>
</svg>
