<svg width="20" height="22" viewBox="0 0 20 22" fill="none" xmlns="http://www.w3.org/2000/svg">
<path fill-rule="evenodd" clip-rule="evenodd" d="M8.60852 17.217C13.3629 17.217 17.217 13.3629 17.217 8.60852C17.217 3.85417 13.3629 0 8.60852 0C3.85417 0 0 3.85417 0 8.60852C0 13.3629 3.85417 17.217 8.60852 17.217ZM8.60856 14.9214C12.0951 14.9214 14.9215 12.095 14.9215 8.60852C14.9215 5.12199 12.0951 2.2956 8.60856 2.2956C5.12203 2.2956 2.29564 5.12199 2.29564 8.60852C2.29564 12.095 5.12203 14.9214 8.60856 14.9214Z" fill="#ABABAB"/>
<rect x="13.1011" y="13.1997" width="9.75633" height="2.29561" rx="1.1478" transform="rotate(45 13.1011 13.1997)" fill="#ABABAB"/>
</svg>
