<svg width="15" height="18" viewBox="0 0 15 18" fill="none" xmlns="http://www.w3.org/2000/svg">
<path d="M7.49997 0C3.36448 0 0 3.26998 0 7.28938C0 8.94786 0.559223 10.5098 1.61723 11.8064C2.98716 13.4851 6.97084 17.4711 7.13984 17.6399L7.49997 18L7.86016 17.64C8.02911 17.4711 12.014 13.4842 13.3842 11.8049C14.4413 10.5094 15 8.94795 15 7.28938C15 3.26998 11.6355 0 7.49997 0ZM12.5971 11.1982C11.4941 12.55 8.53196 15.5572 7.50002 16.5973C6.46819 15.5572 3.5072 12.5509 2.40443 11.1996C1.48863 10.0774 1.00471 8.72531 1.00471 7.28938C1.00471 3.80842 3.91848 0.976494 7.49997 0.976494C11.0815 0.976494 13.9953 3.80842 13.9953 7.28938C13.9953 8.72536 13.5118 10.077 12.5971 11.1982Z" fill="#979797"/>
<path d="M7.49982 2.89355C5.05189 2.89355 3.0603 4.82921 3.0603 7.20839C3.0603 9.58757 5.05184 11.5232 7.49982 11.5232C9.9478 11.5232 11.9393 9.58761 11.9393 7.20839C11.9394 4.82916 9.9478 2.89355 7.49982 2.89355ZM7.49982 10.5467C5.60589 10.5467 4.06501 9.04918 4.06501 7.20839C4.06501 5.3676 5.60584 3.87005 7.49982 3.87005C9.39381 3.87005 10.9346 5.3676 10.9346 7.20839C10.9347 9.04913 9.39376 10.5467 7.49982 10.5467Z" fill="#979797"/>
<path d="M7.31581 7.53488L6.0543 6.55936L5.42871 7.32356L7.4728 8.90407L9.64966 6.27076L8.86633 5.65918L7.31581 7.53488Z" fill="#979797"/>
</svg>
