<svg width="40" height="40" viewBox="0 0 40 40" fill="none" xmlns="http://www.w3.org/2000/svg">
<path d="M11.0938 17.3283C9.19375 16.9343 3.57292 24.7164 1 28.6567V39H39V6C33.0625 8.46269 23.5625 23.2388 21.7812 23.7313C20 24.2239 13.4688 17.8209 11.0938 17.3283Z" fill="#B07839" fill-opacity="0.5"/>
<path d="M1 28C3.57292 24.1739 9.19375 16.6174 11.0938 17C13.4688 17.4783 20 23.6957 21.7812 23.2174C23.5625 22.7391 33.0625 8.39131 39 6" stroke="#775229"/>
<path d="M10.8065 31.3182C7.12903 32.1061 1 11.2273 1 0V39H39V23.6364C34.7097 19.5 29.8065 10.6364 23.6774 10.6364C17.5484 10.6364 16.3226 30.1364 10.8065 31.3182Z" fill="#FFB25B" fill-opacity="0.5"/>
<path d="M1 0C1 11.4638 7.12903 32.7823 10.8065 31.9779C16.3226 30.7712 17.5484 10.8604 23.6774 10.8604C29.8065 10.8604 34.7097 19.9107 39 24.1342" stroke="#EEAD64"/>
<rect y="38" width="40" height="2" rx="1" fill="#FF9B2A"/>
<rect width="2" height="40" rx="1" fill="#FF9B2A"/>
</svg>
