<svg width="40" height="40" viewBox="0 0 40 40" fill="none" xmlns="http://www.w3.org/2000/svg">
<path fill-rule="evenodd" clip-rule="evenodd" d="M3 0C1.34315 0 0 1.34315 0 3V29C0 30.6569 1.34315 32 3 32H25.8182L36 40V32H37C38.6569 32 40 30.6569 40 29V3C40 1.34315 38.6569 0 37 0H3Z" fill="#FF9B2A"/>
<path d="M7.32 16.46C7.32 15.7667 7.46333 15.15 7.75 14.61C8.04333 14.0633 8.45667 13.64 8.99 13.34C9.52333 13.0333 10.1367 12.88 10.83 12.88C11.71 12.88 12.45 13.1167 13.05 13.59C13.65 14.0567 14.0367 14.6933 14.21 15.5H12.1C11.9733 15.2333 11.7967 15.03 11.57 14.89C11.35 14.75 11.0933 14.68 10.8 14.68C10.3467 14.68 9.98333 14.8433 9.71 15.17C9.44333 15.49 9.31 15.92 9.31 16.46C9.31 17.0067 9.44333 17.4433 9.71 17.77C9.98333 18.09 10.3467 18.25 10.8 18.25C11.0933 18.25 11.35 18.18 11.57 18.04C11.7967 17.9 11.9733 17.6967 12.1 17.43H14.21C14.0367 18.2367 13.65 18.8767 13.05 19.35C12.45 19.8167 11.71 20.05 10.83 20.05C10.1367 20.05 9.52333 19.9 8.99 19.6C8.45667 19.2933 8.04333 18.87 7.75 18.33C7.46333 17.7833 7.32 17.16 7.32 16.46ZM18.8281 14.34C19.4681 14.34 19.9748 14.5567 20.3481 14.99C20.7281 15.4167 20.9181 15.9967 20.9181 16.73V20H18.9581V16.99C18.9581 16.67 18.8748 16.42 18.7081 16.24C18.5415 16.0533 18.3181 15.96 18.0381 15.96C17.7448 15.96 17.5148 16.0533 17.3481 16.24C17.1815 16.42 17.0981 16.67 17.0981 16.99V20H15.1381V12.6H17.0981V15.19C17.2715 14.9367 17.5048 14.7333 17.7981 14.58C18.0981 14.42 18.4415 14.34 18.8281 14.34ZM21.6736 17.19C21.6736 16.61 21.7769 16.1033 21.9836 15.67C22.1969 15.2367 22.4836 14.9033 22.8436 14.67C23.2103 14.4367 23.6169 14.32 24.0636 14.32C24.4503 14.32 24.7836 14.3967 25.0636 14.55C25.3436 14.7033 25.5603 14.91 25.7136 15.17V14.39H27.6736V20H25.7136V19.22C25.5603 19.48 25.3403 19.6867 25.0536 19.84C24.7736 19.9933 24.4436 20.07 24.0636 20.07C23.6169 20.07 23.2103 19.9533 22.8436 19.72C22.4836 19.4867 22.1969 19.1533 21.9836 18.72C21.7769 18.28 21.6736 17.77 21.6736 17.19ZM25.7136 17.19C25.7136 16.83 25.6136 16.5467 25.4136 16.34C25.2203 16.1333 24.9803 16.03 24.6936 16.03C24.4003 16.03 24.1569 16.1333 23.9636 16.34C23.7703 16.54 23.6736 16.8233 23.6736 17.19C23.6736 17.55 23.7703 17.8367 23.9636 18.05C24.1569 18.2567 24.4003 18.36 24.6936 18.36C24.9803 18.36 25.2203 18.2567 25.4136 18.05C25.6136 17.8433 25.7136 17.5567 25.7136 17.19ZM32.1005 18.33V20H31.2505C29.8171 20 29.1005 19.29 29.1005 17.87V16.02H28.4105V14.39H29.1005V13.03H31.0705V14.39H32.0905V16.02H31.0705V17.9C31.0705 18.0533 31.1038 18.1633 31.1705 18.23C31.2438 18.2967 31.3638 18.33 31.5305 18.33H32.1005Z" fill="white"/>
</svg>
