<svg width="30" height="30" viewBox="0 0 30 30" fill="none" xmlns="http://www.w3.org/2000/svg">
<path d="M8.32031 12.9963C6.89531 12.7007 2.67969 18.5373 0.75 21.4925V29.25H29.25V4.5C24.7969 6.34701 17.6719 17.4291 16.3359 17.7985C15 18.1679 10.1016 13.3657 8.32031 12.9963Z" fill="#B07839" fill-opacity="0.5"/>
<path d="M0.75 21C2.67969 18.1304 6.89531 12.463 8.32031 12.75C10.1016 13.1087 15 17.7717 16.3359 17.4131C17.6719 17.0544 24.7969 6.29348 29.25 4.5" stroke="#775229"/>
<path d="M8.10484 23.4886C5.34677 24.0795 0.75 8.42045 0.75 0V29.25H29.25V17.7273C26.0323 14.625 22.3548 7.97727 17.7581 7.97727C13.1613 7.97727 12.2419 22.6023 8.10484 23.4886Z" fill="#FF9B2A" fill-opacity="0.5"/>
<path d="M0.75 0C0.75 8.59782 5.34677 24.5868 8.10484 23.9834C12.2419 23.0784 13.1613 8.1453 17.7581 8.1453C22.3548 8.1453 26.0323 14.9331 29.25 18.1007" stroke="#FF9B2A"/>
<rect y="28.5" width="30" height="1.5" rx="0.75" fill="#FF9B2A"/>
<rect width="1.5" height="30" rx="0.75" fill="#FF9B2A"/>
</svg>
