<svg width="40" height="43" viewBox="0 0 40 43" fill="none" xmlns="http://www.w3.org/2000/svg">
<path d="M0 17H40V38C40 40.7614 37.7614 43 35 43H5C2.23858 43 0 40.7614 0 38V17Z" fill="#FF9B2A"/>
<path d="M0 8C0 5.23858 2.23858 3 5 3H35C37.7614 3 40 5.23858 40 8V17H0V8Z" fill="#FFEFB7"/>
<rect x="9" width="3" height="10" rx="1.5" fill="#FFB867"/>
<rect x="28" width="3" height="10" rx="1.5" fill="#FFB867"/>
<rect x="4" y="19" width="9" height="9" rx="3" fill="#FFF5E9"/>
<rect x="17" y="19" width="9" height="9" rx="3" fill="#FFF5E9"/>
<rect x="28" y="30" width="9" height="9" rx="3" fill="#FFF5E9"/>
</svg>
