<svg width="50" height="50" viewBox="0 0 50 50" fill="none" xmlns="http://www.w3.org/2000/svg">
<rect width="50" height="50" rx="10" fill="white"/>
<path fill-rule="evenodd" clip-rule="evenodd" d="M8.33325 13.3956V44.1071H20.1813C25.9495 44.1071 35.7709 41.7686 35.7709 28.6734C35.7709 15.5782 25.9495 13.3956 20.1813 13.3956H8.33325ZM17.5312 23.5289V33.818H21.4357C23.3365 33.818 26.5731 33.0345 26.5731 28.6473C26.5731 24.2601 23.3365 23.5289 21.4357 23.5289H17.5312Z" fill="#6F52ED" fill-opacity="0.4"/>
<path fill-rule="evenodd" clip-rule="evenodd" d="M11.2812 10.4479V41.1593H23.1293C28.8975 41.1593 38.7189 38.8209 38.7189 25.7256C38.7189 12.6304 28.8975 10.4479 23.1293 10.4479H11.2812ZM20.4791 20.5811V30.8702H24.3835C26.2844 30.8702 29.521 30.0868 29.521 25.6996C29.521 21.3123 26.2844 20.5811 24.3835 20.5811H20.4791Z" fill="#6F52ED" fill-opacity="0.5"/>
<path fill-rule="evenodd" clip-rule="evenodd" d="M14.229 7.5V38.2114H26.0771C31.8452 38.2114 41.6666 35.873 41.6666 22.7778C41.6666 9.68254 31.8452 7.5 26.0771 7.5H14.229ZM23.4269 17.6332V27.9223H27.3314C29.2323 27.9223 32.4689 27.1389 32.4689 22.7517C32.4689 18.3644 29.2323 17.6332 27.3314 17.6332H23.4269Z" fill="#6F52ED" fill-opacity="0.8"/>
</svg>
