<svg width="363" height="266" viewBox="0 0 363 266" fill="none" xmlns="http://www.w3.org/2000/svg">
<circle cx="135.875" cy="146.725" r="25.9662" fill="white"/>
<path d="M254.443 120.759L202.511 145.473L254.443 172.691" stroke="white" stroke-width="10" stroke-linecap="round" stroke-linejoin="round"/>
<path fill-rule="evenodd" clip-rule="evenodd" d="M128.679 191.462C130.302 217.273 154.574 237.763 184.279 237.763C213.984 237.763 238.257 217.273 239.88 191.462H128.679Z" fill="white"/>
<path d="M65.4844 142.658C65.4844 78.3835 117.589 26.2791 181.863 26.2791" stroke="white" stroke-width="10" stroke-linecap="round"/>
<path d="M129.305 58.1893C184.968 26.0522 256.144 45.1238 288.281 100.787" stroke="white" stroke-width="10" stroke-linecap="round"/>
<path d="M89.1517 226.115C39.9146 184.8 33.4919 111.394 74.8062 62.1568" stroke="white" stroke-width="10" stroke-linecap="round"/>
<path d="M305.75 159.551C305.75 202.628 282.346 240.238 247.561 260.361" stroke="white" stroke-width="10" stroke-linecap="round"/>
<path d="M291.376 75.9352C321.836 106.395 331.882 149.538 321.513 188.364" stroke="white" stroke-width="10" stroke-linecap="round"/>
</svg>
