<svg width="100" height="100" viewBox="0 0 100 100" fill="none" xmlns="http://www.w3.org/2000/svg">
<g filter="url(#filter0_di_60_474)">
<rect x="20" y="16" width="60" height="60" rx="10" fill="white"/>
</g>
<path fill-rule="evenodd" clip-rule="evenodd" d="M30 32.0748V68.9285H44.2177C51.1394 68.9285 62.9251 66.1224 62.9251 50.4081C62.9251 34.6939 51.1394 32.0748 44.2177 32.0748H30ZM41.0374 44.2347V56.5816H45.7228C48.0038 56.5816 51.8878 55.6415 51.8878 50.3768C51.8878 45.1121 48.0038 44.2347 45.7228 44.2347H41.0374Z" fill="#6F52ED" fill-opacity="0.4"/>
<path fill-rule="evenodd" clip-rule="evenodd" d="M33.5374 28.5374V65.3911H47.755C54.6768 65.3911 66.4625 62.585 66.4625 46.8707C66.4625 31.1564 54.6768 28.5374 47.755 28.5374H33.5374ZM44.5748 40.6973V53.0442H49.2602C51.5412 53.0442 55.4251 52.1041 55.4251 46.8394C55.4251 41.5747 51.5412 40.6973 49.2602 40.6973H44.5748Z" fill="#6F52ED" fill-opacity="0.5"/>
<path d="M33.5374 65.3911H33.0374V65.8911H33.5374V65.3911ZM33.5374 28.5374V28.0374H33.0374V28.5374H33.5374ZM44.5748 53.0442H44.0748V53.5442H44.5748V53.0442ZM44.5748 40.6973V40.1973H44.0748V40.6973H44.5748ZM34.0374 65.3911V28.5374H33.0374V65.3911H34.0374ZM47.755 64.8911H33.5374V65.8911H47.755V64.8911ZM65.9625 46.8707C65.9625 54.5832 63.0812 59.052 59.4179 61.614C55.7237 64.1977 51.1636 64.8911 47.755 64.8911V65.8911C51.2682 65.8911 56.0619 65.1815 59.991 62.4335C63.951 59.664 66.9625 54.8725 66.9625 46.8707H65.9625ZM47.755 29.0374C51.1683 29.0374 55.7282 29.6857 59.4213 32.2233C63.0817 34.7385 65.9625 39.1586 65.9625 46.8707H66.9625C66.9625 38.8686 63.9504 34.122 59.9876 31.3991C56.0574 28.6986 51.2636 28.0374 47.755 28.0374V29.0374ZM33.5374 29.0374H47.755V28.0374H33.5374V29.0374ZM45.0748 53.0442V40.6973H44.0748V53.0442H45.0748ZM49.2602 52.5442H44.5748V53.5442H49.2602V52.5442ZM54.9251 46.8394C54.9251 49.3305 54.0165 50.7206 52.9083 51.5086C51.7702 52.3178 50.3471 52.5442 49.2602 52.5442V53.5442C50.4543 53.5442 52.1137 53.3006 53.4878 52.3236C54.8917 51.3253 55.9251 49.613 55.9251 46.8394H54.9251ZM49.2602 41.1973C50.3518 41.1973 51.7748 41.4098 52.9117 42.204C54.017 42.9761 54.9251 44.3487 54.9251 46.8394H55.9251C55.9251 44.0655 54.8913 42.367 53.4844 41.3842C52.1091 40.4235 50.4495 40.1973 49.2602 40.1973V41.1973ZM44.5748 41.1973H49.2602V40.1973H44.5748V41.1973Z" fill="black" fill-opacity="0.3"/>
<path fill-rule="evenodd" clip-rule="evenodd" d="M37.075 25V61.8537H51.2926C58.2144 61.8537 70.0001 59.0476 70.0001 43.3333C70.0001 27.619 58.2144 25 51.2926 25H37.075ZM48.1124 37.1599V49.5068H52.7977C55.0788 49.5068 58.9627 48.5667 58.9627 43.302C58.9627 38.0373 55.0788 37.1599 52.7977 37.1599H48.1124Z" fill="#6F52ED" fill-opacity="0.8"/>
<defs>
<filter id="filter0_di_60_474" x="0" y="0" width="100" height="100" filterUnits="userSpaceOnUse" color-interpolation-filters="sRGB">
<feFlood flood-opacity="0" result="BackgroundImageFix"/>
<feColorMatrix in="SourceAlpha" type="matrix" values="0 0 0 0 0 0 0 0 0 0 0 0 0 0 0 0 0 0 127 0" result="hardAlpha"/>
<feOffset dy="4"/>
<feGaussianBlur stdDeviation="10"/>
<feComposite in2="hardAlpha" operator="out"/>
<feColorMatrix type="matrix" values="0 0 0 0 0 0 0 0 0 0 0 0 0 0 0 0 0 0 0.5 0"/>
<feBlend mode="normal" in2="BackgroundImageFix" result="effect1_dropShadow_60_474"/>
<feBlend mode="normal" in="SourceGraphic" in2="effect1_dropShadow_60_474" result="shape"/>
<feColorMatrix in="SourceAlpha" type="matrix" values="0 0 0 0 0 0 0 0 0 0 0 0 0 0 0 0 0 0 127 0" result="hardAlpha"/>
<feOffset dx="-2" dy="-2"/>
<feGaussianBlur stdDeviation="2"/>
<feComposite in2="hardAlpha" operator="arithmetic" k2="-1" k3="1"/>
<feColorMatrix type="matrix" values="0 0 0 0 0.435294 0 0 0 0 0.321569 0 0 0 0 0.929412 0 0 0 0.5 0"/>
<feBlend mode="normal" in2="shape" result="effect2_innerShadow_60_474"/>
</filter>
</defs>
</svg>
