<svg width="30" height="33" viewBox="0 0 30 33" fill="none" xmlns="http://www.w3.org/2000/svg">
<path d="M0 12.75H30V28.5C30 30.5711 28.3211 32.25 26.25 32.25H3.75C1.67893 32.25 0 30.5711 0 28.5V12.75Z" fill="#FF9B2A"/>
<path d="M0 6C0 3.92893 1.67893 2.25 3.75 2.25H26.25C28.3211 2.25 30 3.92893 30 6V12.75H0V6Z" fill="#FFEFB7"/>
<path d="M6.75 1.125C6.75 0.50368 7.25368 0 7.875 0C8.49632 0 9 0.50368 9 1.125V6.375C9 6.99632 8.49632 7.5 7.875 7.5C7.25368 7.5 6.75 6.99632 6.75 6.375V1.125Z" fill="#FFB867"/>
<path d="M21 1.125C21 0.50368 21.5037 0 22.125 0C22.7463 0 23.25 0.50368 23.25 1.125V6.375C23.25 6.99632 22.7463 7.5 22.125 7.5C21.5037 7.5 21 6.99632 21 6.375V1.125Z" fill="#FFB867"/>
<path d="M3 16.5C3 15.2574 4.00736 14.25 5.25 14.25H7.5C8.74264 14.25 9.75 15.2574 9.75 16.5V18.75C9.75 19.9926 8.74264 21 7.5 21H5.25C4.00736 21 3 19.9926 3 18.75V16.5Z" fill="#FFF5E9"/>
<path d="M12.75 16.5C12.75 15.2574 13.7574 14.25 15 14.25H17.25C18.4926 14.25 19.5 15.2574 19.5 16.5V18.75C19.5 19.9926 18.4926 21 17.25 21H15C13.7574 21 12.75 19.9926 12.75 18.75V16.5Z" fill="#FFF5E9"/>
<path d="M21 24.75C21 23.5074 22.0074 22.5 23.25 22.5H25.5C26.7426 22.5 27.75 23.5074 27.75 24.75V27C27.75 28.2426 26.7426 29.25 25.5 29.25H23.25C22.0074 29.25 21 28.2426 21 27V24.75Z" fill="#FFF5E9"/>
</svg>
