<svg width="30" height="30" viewBox="0 0 30 30" fill="none" xmlns="http://www.w3.org/2000/svg">
<path fill-rule="evenodd" clip-rule="evenodd" d="M3 0C1.34315 0 0 1.34315 0 3V21C0 22.6569 1.34315 24 3 24H19.3636L27 30V24C28.6569 24 30 22.6569 30 21V3C30 1.34315 28.6569 0 27 0H3Z" fill="#3B0273"/>
<path d="M5.48999 12.345C5.48999 11.825 5.59749 11.3625 5.81249 10.9575C6.03249 10.5475 6.34249 10.23 6.74249 10.005C7.14249 9.77501 7.60249 9.66001 8.12249 9.66001C8.78249 9.66001 9.33749 9.83751 9.78749 10.1925C10.2375 10.5425 10.5275 11.02 10.6575 11.625H9.07499C8.97999 11.425 8.84749 11.2725 8.67749 11.1675C8.51249 11.0625 8.31999 11.01 8.09999 11.01C7.75999 11.01 7.48749 11.1325 7.28249 11.3775C7.08249 11.6175 6.98249 11.94 6.98249 12.345C6.98249 12.755 7.08249 13.0825 7.28249 13.3275C7.48749 13.5675 7.75999 13.6875 8.09999 13.6875C8.31999 13.6875 8.51249 13.635 8.67749 13.53C8.84749 13.425 8.97999 13.2725 9.07499 13.0725H10.6575C10.5275 13.6775 10.2375 14.1575 9.78749 14.5125C9.33749 14.8625 8.78249 15.0375 8.12249 15.0375C7.60249 15.0375 7.14249 14.925 6.74249 14.7C6.34249 14.47 6.03249 14.1525 5.81249 13.7475C5.59749 13.3375 5.48999 12.87 5.48999 12.345Z" fill="white"/>
<path d="M14.1211 10.755C14.6011 10.755 14.9811 10.9175 15.2611 11.2425C15.5461 11.5625 15.6886 11.9975 15.6886 12.5475V15H14.2186V12.7425C14.2186 12.5025 14.1561 12.315 14.0311 12.18C13.9061 12.04 13.7386 11.97 13.5286 11.97C13.3086 11.97 13.1361 12.04 13.0111 12.18C12.8861 12.315 12.8236 12.5025 12.8236 12.7425V15H11.3536V9.45001H12.8236V11.3925C12.9536 11.2025 13.1286 11.05 13.3486 10.935C13.5736 10.815 13.8311 10.755 14.1211 10.755Z" fill="white"/>
<path d="M16.2552 12.8925C16.2552 12.4575 16.3327 12.0775 16.4877 11.7525C16.6477 11.4275 16.8627 11.1775 17.1327 11.0025C17.4077 10.8275 17.7127 10.74 18.0477 10.74C18.3377 10.74 18.5877 10.7975 18.7977 10.9125C19.0077 11.0275 19.1702 11.1825 19.2852 11.3775V10.7925H20.7552V15H19.2852V14.415C19.1702 14.61 19.0052 14.765 18.7902 14.88C18.5802 14.995 18.3327 15.0525 18.0477 15.0525C17.7127 15.0525 17.4077 14.965 17.1327 14.79C16.8627 14.615 16.6477 14.365 16.4877 14.04C16.3327 13.71 16.2552 13.3275 16.2552 12.8925ZM19.2852 12.8925C19.2852 12.6225 19.2102 12.41 19.0602 12.255C18.9152 12.1 18.7352 12.0225 18.5202 12.0225C18.3002 12.0225 18.1177 12.1 17.9727 12.255C17.8277 12.405 17.7552 12.6175 17.7552 12.8925C17.7552 13.1625 17.8277 13.3775 17.9727 13.5375C18.1177 13.6925 18.3002 13.77 18.5202 13.77C18.7352 13.77 18.9152 13.6925 19.0602 13.5375C19.2102 13.3825 19.2852 13.1675 19.2852 12.8925Z" fill="white"/>
<path d="M24.0753 13.7475V15H23.4378C22.3628 15 21.8253 14.4675 21.8253 13.4025V12.015H21.3078V10.7925H21.8253V9.77251H23.3028V10.7925H24.0678V12.015H23.3028V13.425C23.3028 13.54 23.3278 13.6225 23.3778 13.6725C23.4328 13.7225 23.5228 13.7475 23.6478 13.7475H24.0753Z" fill="white"/>
</svg>
